<?xml version="1.0" encoding="utf-8"?>
<!-- Generator: Adobe Illustrator 21.0.0, SVG Export Plug-In . SVG Version: 6.00 Build 0)  -->
<svg version="1.1" id="图层_1" xmlns="http://www.w3.org/2000/svg" xmlns:xlink="http://www.w3.org/1999/xlink" x="0px" y="0px"
	 viewBox="0 0 100 100" style="enable-background:new 0 0 100 100;" xml:space="preserve">
<style type="text/css">
	.st0{enable-background:new    ;}
	.st1{fill:#FFFFFF;}
</style>
<title>logo</title>
<rect width="100" height="100"/>
<g class="st0">
	<path class="st1" d="M42.1,27h11.6c2.3-3.4,4-7.1,4.9-9.3l-0.5-1.7l1-1.1l7.3,3.2c-3.2,3.5-6.9,6.6-10.4,8.9h14.1l2.8-3
		c1.4,0.9,4.2,3.2,5.3,4.5l-1.7,1.8v19.1h-5.6v-2.2H30v2.5h-5.6V28.1l-1.2-1.5v-1.2h6l0.7,1.6h11.3c-2.2-3.4-5.5-7.3-8.1-9.6l0.5-1
		c6.5,0.8,12.6,3.5,11.2,9.3L42.1,27z M36.4,53.1L36.4,53.1l25.9,0.1l3.3-3.3c1.6,1.1,4.3,3.5,5.5,4.9l-1.9,2v23.6h-5.6v-4.8H36.4
		v5.2h-5.6V54.4l-1.6-1.6v-1.5h6.3L36.4,53.1z M30,45.3h17.6V28.7H30V45.3z M38.8,42.9c-1.7-3.5-4-7.3-6.1-10l0.6-0.9
		c5.8,1.5,9.9,4.4,8.7,9.6L38.8,42.9z M36.4,55v8.5h27.1V55H36.4z M36.4,73.9h27.1v-8.6H36.4V73.9z M53.3,28.7v16.6h17.6V28.7H53.3z
		 M55.6,42.9c2.1-3.3,4-7.8,4.6-9.9l-0.4-1.4l0.6-1.1l6.7,2.7c-3,3.9-7.3,8-10.7,10.4L55.6,42.9z"/>
</g>
</svg>
