<svg xmlns="http://www.w3.org/2000/svg" xmlns:xlink="http://www.w3.org/1999/xlink" width="100px" height="100px" x="0px" y="0px" fill="#ffffff" style="enable-background:new 0 0 80 80" version="1.1" viewBox="0 0 80 80" xml:space="preserve">
    <path d="M69,67H17c-1.104,0-2,0.896-2,2s0.896,2,2,2h52c1.104,0,2-0.896,2-2S70.104,67,69,67z"/>
    <circle cx="11" cy="69" r="2"/>
    <path d="M74.013,23.692c-1.872-1.085-4.11-1.093-5.988-0.019L40.992,39.129c-0.613,0.352-1.373,0.351-1.985,0.001L11.973,23.691  c-1.879-1.072-4.118-1.063-5.987,0.022c-1.871,1.086-2.988,3.025-2.988,5.188V71c0,3.309,2.691,6,6,6h62.005c3.309,0,6-2.691,6-6  V28.883C77.002,26.719,75.885,24.778,74.013,23.692z M73.002,71c0,1.103-0.897,2-2,2H8.998c-1.103,0-2-0.897-2-2V28.902  c0-1.039,0.696-1.556,0.996-1.729c0.183-0.106,0.55-0.277,1.014-0.277c0.296,0,0.631,0.069,0.982,0.27l27.033,15.438  c1.837,1.05,4.119,1.051,5.955-0.001L70.01,27.146c0.901-0.517,1.696-0.169,1.996,0.006c0.299,0.174,0.997,0.69,0.997,1.73V71z"/>
    <path d="M9,7h47.333c1.104,0,2-0.896,2-2s-0.896-2-2-2H9C5.695,3,3.003,5.689,3,8.996l0,0.701c-0.001,2.15,1.158,4.148,3.026,5.216  l30.998,17.69c0.917,0.524,1.946,0.786,2.974,0.786c1.03,0,2.06-0.263,2.978-0.787l30.996-17.717  c1.861-1.063,3.02-3.056,3.023-5.199l0.001-0.676c0.003-1.604-0.62-3.114-1.753-4.25C74.108,3.625,72.601,3,70.996,3h-8.662  c-1.104,0-2,0.896-2,2s0.896,2,2,2h8.662c0.535,0,1.038,0.208,1.416,0.587s0.585,0.882,0.584,1.417l-0.001,0.677  c-0.001,0.714-0.387,1.378-1.008,1.732L40.991,29.13c-0.612,0.349-1.372,0.35-1.984,0L8.009,11.439C7.386,11.083,7,10.417,7,9.699  l0-0.7C7.001,7.896,7.898,7,9,7z"/>
</svg>
