<?xml version="1.0" encoding="utf-8"?>
<!-- Generator: Adobe Illustrator 21.0.0, SVG Export Plug-In . SVG Version: 6.00 Build 0)  -->
<svg version="1.1" id="图层_1" xmlns="http://www.w3.org/2000/svg" xmlns:xlink="http://www.w3.org/1999/xlink" x="0px" y="0px"
	 viewBox="0 0 200 100" style="enable-background:new 0 0 200 100;" xml:space="preserve">
<g>
	<path d="M64,30.7c-2.7,1.4-2.9,5.8-3.2,11.4C60.8,42.7,60.4,43,60,43c-0.2,0-0.3,0-0.5-0.1c-0.3-0.1-0.6-0.1-0.8-0.3
		c0,2.7,0.1,6.2,0.2,8.3c0,0.1,0,0.1,0,0.3c0,2.6-2.8,3.2-5.8,3.4c-0.9,0.1-1.7,0.1-2.4,0c2.1,0.9,4.4,2.2,6.3,3.4
		c0.6,0.4,1.1,1.2,1.1,2.1c0,0.6-0.3,1.2-0.8,1.7c-1.7,1.4-2.1,1.7-2.2,3.3c-0.1,2.8,0,9.1,0.2,14c0,0.1,0,0.1,0,0.1
		c0,2.4-3,3.1-6.5,3.2c-0.6,0-1.2,0.1-1.8,0.1c-2.9,0-4.6-0.5-4.6-2.7c0-0.1,0-0.1,0-0.2c0-0.3,0-0.6,0.1-0.9H27c0,0.1,0,0.2,0,0.4
		v0.1c0,2.4-3,3.2-6.7,3.4c-0.6,0-1.1,0.1-1.6,0.1c-2.8,0-4.8-0.6-4.8-2.7c0-0.1,0-0.2,0-0.3c0.4-4.5,0.6-9.9,0.6-14.5
		c0-4-0.2-7.4-0.6-8.9c-0.1-0.4-0.2-0.7-0.3-1.1c-1.8-0.1-3-0.7-3-2.5c0-0.1,0-0.4,0-0.5c0.3-3,0.4-6.3,0.4-9.2c0-1.1,0-2.1,0-3
		c-1.3,0.4-2.8,0.8-4.2,1.2c-0.1,0-0.3,0.1-0.3,0.1c-0.5,0-0.8-0.4-0.8-0.8c0-0.3,0.1-0.6,0.4-1c5.3-5.5,10.6-13.3,12.2-18.4
		c0.2-0.6,0.1-1.3,0.7-1.3c0.2,0,0.4,0.1,0.7,0.1c3.9,1,9.4,2.8,12.1,3.9c0.7,0.3,1,0.9,1,1.4c0,0.6-0.4,1.2-1.3,1.2
		c-1.3,0.1-2.1,0.3-2.4,0.9c-1.4,2.3-3.1,4.2-4.9,5.8h20.4c-1.5-2.2-2.8-4.8-3.4-7.7h-1.3c-2.5,0-4.1,0.1-5.4,0.6
		c-0.5,0.1-1.1-0.1-1.3-0.6c-0.3-0.6-0.8-2.2-1-3.2c-0.1-0.6,0.1-0.7,0.4-0.7c0.1,0,0.3,0,0.6,0.1c1.9,0.6,4.2,0.9,6.5,0.9h0.4
		c0.5,0,0.8-0.1,1.1-0.4c0.8-0.9,1.7-1.9,2.3-2.7c0.3-0.4,1-0.4,1.6,0c1.2,0.9,2.8,2.3,3.9,3.5c0.3,0.4,0.4,0.7,0.4,1
		c0,0.4-0.2,0.9-0.6,1.2c-0.6,0.5-1.5,1.2-2.2,1.5c3.2,2.1,8.7,2.7,17,2.7c0.5,0,0.8,0.4,0.8,0.8C64.7,30,64.5,30.4,64,30.7z
		 M47.7,53h-26c-0.6,0.9-1.7,1.4-3,1.7c4.5,1.4,9.1,3.1,9.1,3.1H41c0.6,0,1.1-0.3,1.5-0.6c1.4-1,3-2.1,4.6-3.2
		c0.1-0.1,0.5-0.2,0.9-0.2c0.1,0,0.2,0,0.3,0C48,53.5,47.8,53.3,47.7,53z M29.6,35.8H22c0,0.4,0,0.7-0.1,1.2c4.2,1.4,7,3.7,7.4,7.4
		c0,0.2,0.1,0.5,0.1,0.7c0,2.7-1.7,4.2-3.4,4.2c-1,0-2.1-0.6-2.6-1.8c-0.3-0.6-0.3-1.2-0.3-1.9c0-0.8,0.1-1.7,0.1-2.6
		c0-1.3-0.3-2.7-1.3-4.2c0,1.4-0.1,3-0.1,4.5c0,2.2,0.1,4.5,0.1,6.6h7.6c0.1-2.5,0.1-5.4,0.1-8.2C29.7,39.7,29.7,37.6,29.6,35.8z
		 M42.4,60.8H26.9c-0.1,1.7-0.1,3.6-0.1,5.5c0,0,15.7,0,15.7,0C42.5,64.4,42.5,62.6,42.4,60.8z M26.8,69.4c0.1,2,0.1,4.1,0.1,6.1
		h15.5c0.1-2.1,0.1-4.1,0.1-6.1C42.6,69.4,26.8,69.4,26.8,69.4z M41.3,49.5c-0.2,0.1-0.4,0.2-0.6,0.2c-0.4,0-0.6-0.2-0.6-0.7
		c0,0,0-0.1,0-0.1c0.7-3.5,1.2-8.8,1.2-11.1c0-0.1,0-0.3,0-0.4c0-0.4,0.1-0.7,0.4-0.7c0.1,0,0.1,0,0.2,0c1.8,0.4,3.9,1.2,5.8,1.9
		c0-0.9,0-1.9-0.1-2.7h-8.2c-0.1,4.3-0.1,9.7,0,14.1h8.1c0.1-2.4,0.1-5.8,0.1-8.7C46.7,43.6,44,47.4,41.3,49.5z"/>
	<path d="M126.2,33.8c-0.3,0-0.5,0-0.8-0.1c-1.1-0.2-1.9-0.4-2.8-0.4c-1.4,0-2.7,0.4-5.3,1.7c0.3,0.2,0.6,0.4,0.8,0.6
		c0.4,0.4,0.7,0.8,0.7,1.2c0,0.6-0.4,1.1-1.3,1.1h-9.8c1,4.7,2.2,8.3,3.7,11.1c1.5-3.2,2.4-6.7,2.8-8.6c0.1-0.6,0.1-1.1,0.6-1.1
		c0.2,0,0.4,0.1,0.8,0.2c2.8,1.4,8,5,10.2,6.7c0.7,0.6,1,1.2,1,1.8c0,0.7-0.5,1.3-1.3,1.3c-0.1,0-0.3,0-0.4-0.1
		c-0.3-0.1-0.5-0.1-0.7-0.1c-0.6,0-1.2,0.1-1.6,0.4c-2.4,1.4-4.9,2.7-8.2,3.7c3.9,4.1,8.7,5.3,13.3,6.7c0.3,0.1,0.4,0.4,0.4,0.8
		c0,0.5-0.2,1.1-0.6,1.2c-2.6,1.2-3.7,6-4.8,13.3c-0.1,0.9-1.2,1.2-1.7,0.9c-10.6-7-15.5-15.9-17.1-37.9c-1.9,1.4-3.9,2.6-6.1,3.7
		c6.7,7.6,10.2,16.6,10.5,27.1c0,0.4,0,0.6,0,1c0,9.9-4.8,11.5-14,12.2c-0.1,0-0.1,0-0.2,0c-1,0-1.4-0.4-1.5-1.5
		c-0.3-5.9-1.5-7.6-6-9.5c-0.3-0.1-0.4-0.4-0.5-0.6c0-0.1-0.1-0.2-0.1-0.3c-5,1.9-10.3,3.2-15,3.8c-0.1,0-0.1,0-0.1,0
		c-0.5,0-0.8-0.6-0.8-1.2c0-0.4,0.1-0.6,0.4-0.8c9-5,17.7-11.2,24.9-18.3c-7.3,3.7-15.7,5.8-23.5,6.4c-0.5,0.1-0.9-0.5-0.9-1
		c0-0.4,0.2-0.8,0.6-1c8-3.8,15.6-8.7,22.5-14.9c-5.8,2.4-13.5,4.2-19.5,4.5H75c-0.6,0-0.9-0.4-0.9-0.9c0-0.4,0.2-0.9,0.6-1
		c4.2-2.1,8.6-5.1,12-8.1c-1.4,0.1-2.6,0.2-3.4,0.5c-0.5,0.1-1.2-0.1-1.5-0.6c-0.1-0.3-0.3-0.9-0.6-1.6c-0.4,0.7-0.9,1.4-1.5,1.9
		c-1.2,1.1-2.4,1.5-3.7,1.5c-3.1,0-5.7-3.2-5.7-6.6c0-0.9,0.1-1.9,0.6-2.8c2.1-4.5,7.8-2,7.9-8c0-0.7,0.3-1.1,0.7-1.1
		c0.4,0,0.7,0.2,1,0.7c0.6,1.2,1.1,2.5,1.5,4.1h10.3c0-0.5,0-0.9,0-1.4c0-1.5-0.1-3-0.3-3.7c-0.2-0.9-0.4-1.5-0.4-1.8
		c0-0.4,0.1-0.4,0.6-0.4c0.1,0,0.2,0,0.3,0c3.1,0.1,10.1,0.6,13.7,1.1c0.9,0.1,1.3,0.8,1.3,1.4c0,0.6-0.4,1.2-1.2,1.5
		c-1,0.4-1.5,0.6-1.5,1.6c0,0.4,0,1.1,0,1.8h7.8c0.7,0,1-0.3,1.5-0.7c1-0.8,2.7-2.3,3.9-3.3c0.3-0.2,0.6-0.4,0.9-0.4
		c0.4,0,0.8,0.1,1.1,0.4c1.9,1.3,5.3,4.2,7.3,6.2c0.9,0.9,1.3,2,1.3,3C128.7,32.7,127.9,33.8,126.2,33.8z M82.5,29.3
		c0.1,0.5,0.1,0.9,0.1,1.4c0,1.1-0.1,2.2-0.4,3.2c1.9,0.6,5.1,0.9,7.3,0.9h11.9c0.5,0,1-0.3,1.4-0.6c1.2-1.1,3.5-3.1,4.8-4.3
		c0.5-0.4,1.2-0.4,1.9,0c0.8,0.5,2.3,1.5,3.9,2.5c0.4-1.1,0.6-2.2,0.8-3.1H82.5z M89.3,69.4c1.3,0.1,2.7,0.1,3.9,0.2
		c0.1,0,0.3,0,0.4,0c1.3,0,2.2-0.4,2.4-2.8c0-0.2,0.1-0.4,0.1-0.7C94,67.3,91.7,68.4,89.3,69.4z"/>
	<path d="M187.6,81.6c-2.8,0.3-6,0.4-9.1,0.4c-2.8,0-5.5-0.1-7.7-0.3c-4.6-0.4-6.7-3-6.7-7.8c0-0.1,0-0.3,0-0.4
		c0.1-4.8,0.2-10.5,0.2-16.1c0-5.5-0.1-10.9-0.3-14.7h-20.6c-2.5,0.1-4.8,0.1-6.1,0.6c-0.5,0.1-1.1-0.1-1.4-0.6
		c-0.3-0.6-0.8-2.6-1-3.4c-0.1-0.6,0-0.7,0.4-0.7c0.1,0,0.3,0,0.6,0.1c1.1,0.4,3.7,0.6,5.2,0.8c-0.5-0.4-0.9-0.9-1.1-1.5
		c-0.3-0.7-0.3-1.4-0.3-2c0-1.4,0.4-2.6,0.4-3.7c0-0.9-0.3-1.7-1.1-2.5c-0.2-0.1-0.5-0.6-0.5-0.6c-0.4,0.1-0.7,0.1-1,0.1
		c-0.8,0-1.2-0.4-1.3-0.8c-0.3-0.6-0.7-2.4-0.9-3.2c-0.1-0.6,0-0.7,0.4-0.7c0.1,0,0.3,0,0.6,0.1c1.4,0.4,3.2,0.7,4.9,0.8
		c0.3,0.1,0.6,0.1,1,0.1c0-1.4-0.1-3.3-0.4-4.4c-0.3-0.8-0.4-1.4-0.4-1.7c0-0.5,0.3-0.6,0.9-0.6c0.1,0,0.3,0,0.5,0
		c3.3,0.1,9.1,0.6,12.5,1c1.1,0.1,1.5,0.6,1.5,1.2c0,0.8-0.7,1.7-1.3,1.8c-1,0.3-1.5,0.8-1.7,1.9c0,0.2,0,0.5-0.1,0.7h1
		c0.4,0,0.6-0.3,0.8-0.6c0.8-1.4,1.6-2.8,2.6-4.3c0.2-0.3,0.5-0.4,0.8-0.4c0.3,0,0.6,0.1,0.8,0.4c1.4,1.7,3,4,4.1,5.9
		c0.2,0.4,0.3,0.7,0.3,1c0,0.7-0.4,1.2-1.2,1.2h-8.9c2.3,0.4,5.2,1,7.2,1.5c0.6,0.1,1,0.7,1,1.2c0,0.6-0.3,1.1-1.1,1.2
		c-1,0.1-1.3,0.3-1.9,0.9c-1.7,2.1-3.9,4.4-6.4,6.1h1.9c0.6,0,1-0.3,1.3-0.6c0.9-1.4,2.2-3.4,3.1-4.8c0.2-0.3,0.5-0.4,0.8-0.4
		s0.6,0.1,0.9,0.4c0.9,0.9,1.9,2.2,2.9,3.5c0.2-2.4,0.4-7.7,0.4-11.9c0-2.1-0.1-3.9-0.3-5c-0.1-0.7-0.2-1.2-0.2-1.4
		c0-0.5,0.1-0.6,0.4-0.6c0.1,0,0.3,0.1,0.6,0.1c3.7,0.2,8.2,0.6,12.1,1c0.8,0.1,1.2,0.7,1.2,1.4c0,0.6-0.4,1.2-1.2,1.4
		c-1.1,0.3-1.3,0.7-1.3,1.6c0,0.5,0,1.1,0,1.8h3.5c0.4,0,0.7,0,1-0.4c1.2-1.6,3.1-4.1,4.4-5.6c0.4-0.5,1-0.5,1.5,0
		c2.1,2,4.9,5,6.5,7.1c0.6,0.8,0.4,2-0.6,2h-16.5c0,1.1,0,2.3,0,3.4c0,0.6,0,1.2,0,1.7h1.7c0.6,0,1.2-0.3,1.5-0.6
		c1.1-1.1,3-2.6,4.1-3.7c0.2-0.2,0.6-0.3,1-0.3c0.4,0,0.8,0.1,1.2,0.3c2.1,1.4,4.8,3.2,6.5,4.8c0.4,0.4,0.7,0.9,0.7,1.4
		c0,0.6-0.3,1.1-0.8,1.5c-1,0.8-1.4,1-1.4,1.9c0,0.5-0.1,1.2-0.1,1.9c0,1.1,0.1,2.3,0.1,3.7c0,0.1,0,0.1,0,0.2c0,1.5-1.4,2.1-4,2.4
		c1.4,1.2,3,2.8,4.3,4.5c0.3,0.3,0.4,0.6,0.4,1c0,0.5-0.4,1-1,1h-4.1c1.5,1.2,3.2,3,4.7,4.8c0.3,0.3,0.4,0.6,0.4,1c0,0.5-0.4,1-1,1
		h-4.9c1.1,0.9,2.4,2.1,3.6,3.5c0.1-0.3,0.1-0.6,0.2-1c0.1-0.5,0.5-0.8,1-0.8c0.4,0,0.7,0.2,0.7,0.9c0,0.1,0,0.1,0,0.1
		c-0.1,1.3-0.1,2.3-0.1,3.2c0,3.1,0.3,3.2,1.3,4.1c1.2,1.1,1.9,2.8,1.9,4.6C193.2,78.2,191.5,81.1,187.6,81.6z M163.3,50.8
		c-1.1,0.9-1.3,1.3-1.3,2.2c-0.1,3.7-0.1,9.6-0.1,14.9c0,2.2,0,4.3,0,6.1c0,0.1,0,0.1,0,0.1c0,4.1-2.6,7.4-10.2,8.4
		c-0.1,0-0.3,0-0.4,0c-0.6,0-1-0.3-1.1-1.1c-0.4-4.6-0.8-6.8-2.6-8.2c0,2.2,0.1,4.4,0.1,6.5c0,2-2.1,2.6-5.8,2.7c-0.3,0-0.6,0-0.9,0
		c-2.7,0-4.3-0.6-4.3-2.2c0-0.1,0-0.1,0-0.2c0.3-3.7,0.4-11.2,0.4-18.4c0-7.9-0.2-15.3-0.6-16.8c-0.2-0.6-0.3-0.9-0.3-1.2
		s0.1-0.4,0.3-0.4c0.1,0,0.3,0.1,0.6,0.1c4.2,1.1,11.1,3.2,11.1,3.2h1.8c0.6,0,1-0.3,1.3-0.6c1-0.7,2.5-1.7,3.7-2.6
		c0.4-0.3,1.4-0.3,2,0c1.9,0.9,4.2,2.4,6.1,3.6c0.7,0.5,1.1,1.3,1.1,2C164,49.7,163.8,50.3,163.3,50.8z M150,28.6h-6.7
		c-0.6,0-1.4,0-2.1,0.1c3.5,0.7,7.3,2,7.8,6.3c0,0.1,0,0.3,0,0.5c0,1.7-0.9,3.5-2.3,4.1h2.6c0.6-3.4,0.8-7.7,0.8-10.7
		C150,28.8,150,28.6,150,28.6z M151.2,49.7h-3.7c0,1.6-0.1,3.2-0.1,4.8h3.8C151.3,52.8,151.3,51.3,151.2,49.7z M147.5,57.7
		c0,1.7,0,3.5,0,5.3h3.7c0-1.7,0.1-3.5,0.1-5.3H147.5z M147.5,66.2c0.1,1.6,0.1,3.2,0.1,4.8c0.7,0,1.5,0.1,2.3,0.1
		c1,0,1.3-0.4,1.3-1.4c0-1,0.1-2.2,0.1-3.4H147.5z M178.6,37.2h-3.2c0,0.1,0,0.2,0,0.3c0.1,1.7-1.9,2.1-6,2.4
		c-0.7,0.1-1.4,0.1-2,0.1c-1,0-1.9-0.1-2.6-0.4c0.1,0.2,0.3,0.4,0.4,0.6c5.5,1.4,11.2,3.2,11.2,3.2h2.1c0.1-1.5,0.1-3,0.1-4.2
		C178.7,38.4,178.6,37.7,178.6,37.2z M175.6,54c0,1.2,0,2.4,0,3.7h3.6c0.4,0,0.7-0.1,1-0.4c0.8-0.9,1.9-2.2,3-3.3H175.6z
		 M175.6,60.8c0.1,1.4,0.1,2.7,0.1,3.9h2.9c0.4,0,0.7-0.1,1-0.4c0.8-0.9,2.1-2.3,3.1-3.5H175.6z M178.8,46.6h-3.1
		c0,1.4-0.1,2.8-0.1,4.3h3.5c0.4,0,0.7-0.1,1-0.4c0.7-0.8,1.7-1.9,2.6-2.8C180.8,47.7,179.4,47.3,178.8,46.6z M175.7,67.7
		c0,0.4,0,0.7,0,1c0,2.1,0.3,2.4,1.8,2.6c1.8,0.2,4.9,0.2,6.2,0c1.5-0.2,2.5-0.6,3.5-3.6H175.7z"/>
</g>
</svg>
