<svg height='100px' width='100px'  fill="#ffffff" xmlns="http://www.w3.org/2000/svg" xmlns:xlink="http://www.w3.org/1999/xlink" version="1.1" x="0px" y="0px" viewBox="0 0 80 80" style="enable-background:new 0 0 80 80;" xml:space="preserve"><path d="M67,11H13C7.486,11,3,15.486,3,21v2.854C3,29.448,7.552,34,13.146,34h5.73c2.759,0,5.152-1.869,5.821-4.544l0.485-1.941  C25.406,26.623,26.204,26,27.123,26h25.754c0.919,0,1.717,0.623,1.94,1.515l0.485,1.94C55.971,32.131,58.364,34,61.123,34h5.73  C72.448,34,77,29.448,77,23.854V21C77,15.486,72.514,11,67,11z M73,23.854C73,27.243,70.243,30,66.854,30h-5.73  c-0.919,0-1.717-0.623-1.94-1.515l-0.485-1.94C58.029,23.869,55.636,22,52.877,22H27.123c-2.759,0-5.152,1.869-5.821,4.544  l-0.485,1.941C20.594,29.377,19.796,30,18.877,30h-5.73C9.757,30,7,27.243,7,23.854V21c0-3.309,2.691-6,6-6h54c3.309,0,6,2.691,6,6  V23.854z"></path><path d="M72.33,43.342L57.799,40.04c-2.215-0.504-4.118-1.931-5.22-3.916l-1.688-3.038C49.834,31.183,47.824,30,45.646,30H34.354  c-2.178,0-4.188,1.183-5.245,3.086l-1.688,3.038c-1.103,1.985-3.005,3.412-5.22,3.916L7.67,43.342C4.92,43.967,3,46.373,3,49.193V63  c0,3.309,2.691,6,6,6h15c1.104,0,2-0.896,2-2s-0.896-2-2-2H9c-1.103,0-2-0.897-2-2V49.193c0-0.94,0.64-1.742,1.557-1.95  l14.531-3.302c3.322-0.755,6.176-2.896,7.831-5.874l1.688-3.038C32.958,34.394,33.628,34,34.354,34h11.293  c0.726,0,1.396,0.394,1.748,1.029l1.683,3.029l-5.329-1.211c-2.468-0.562-5.076-0.561-7.542,0.002l-0.82,0.187  c-1.077,0.245-1.751,1.317-1.506,2.394s1.315,1.751,2.394,1.506l0.82-0.187c1.886-0.43,3.881-0.43,5.768-0.002l14.051,3.194  l14.531,3.302C72.36,47.451,73,48.253,73,49.193V63c0,1.103-0.897,2-2,2H56c-1.104,0-2,0.896-2,2s0.896,2,2,2h15  c3.309,0,6-2.691,6-6V49.193C77,46.373,75.08,43.967,72.33,43.342z"></path><circle cx="40" cy="67" r="2"></circle><circle cx="48" cy="67" r="2"></circle><circle cx="32" cy="67" r="2"></circle></svg>