<svg height='100px' width='100px'  fill="#ffffff" xmlns="http://www.w3.org/2000/svg" xmlns:xlink="http://www.w3.org/1999/xlink" version="1.1" x="0px" y="0px" viewBox="0 0 80 80" style="enable-background:new 0 0 80 80;" xml:space="preserve"><path d="M45.723,42.116c-2.082-1.717-4.815-2.402-7.509-1.88c-3.558,0.691-6.394,3.554-7.057,7.123  c-0.547,2.949,0.38,5.963,2.478,8.061C33.771,55.557,34,55.834,34,56.165V61c0,3.309,2.691,6,6,6s6-2.691,6-6v-4.838  c0-0.33,0.216-0.594,0.346-0.722C48.058,53.738,49,51.474,49,49.063C49,46.365,47.806,43.833,45.723,42.116z M43.526,52.602  C42.542,53.58,42,54.844,42,56.162V61c0,1.103-0.897,2-2,2s-2-0.897-2-2v-4.835c0-1.313-0.545-2.581-1.536-3.572  c-1.184-1.184-1.685-2.826-1.373-4.503c0.359-1.937,1.957-3.552,3.887-3.926c0.347-0.067,0.69-0.101,1.03-0.101  c1.161,0,2.261,0.391,3.17,1.14C44.336,46.157,45,47.564,45,49.063C45,50.4,44.477,51.658,43.526,52.602z"></path><path d="M68,36c-1.104,0-2,0.896-2,2v30c0,1.104,0.896,2,2,2s2-0.896,2-2V38C70,36.896,69.104,36,68,36z"></path><path d="M12,36c-1.104,0-2,0.896-2,2v24c0,1.104,0.896,2,2,2s2-0.896,2-2V38C14,36.896,13.104,36,12,36z"></path><circle cx="12" cy="68" r="2"></circle><path d="M73.096,30.759C71.962,29.625,70.454,29,68.852,29H57v-8.276c0-4.817-3.919-8.736-8.735-8.736H31.741  c-4.82,0-8.741,3.921-8.741,8.742V29h-5v-8.283C18,13.153,24.153,7,31.717,7h16.554C55.841,7,62,13.159,62,20.73V25  c0,1.104,0.896,2,2,2s2-0.896,2-2v-4.27C66,10.954,58.047,3,48.271,3H31.717C21.947,3,14,10.948,14,20.717V29h-2.852  c-1.603,0-3.11,0.625-4.245,1.759l-2.148,2.15C3.623,34.042,3,35.548,3,37.15v31.7c0,1.602,0.623,3.108,1.755,4.241l2.149,2.15  C8.038,76.375,9.546,77,11.148,77h57.703c1.603,0,3.11-0.625,4.245-1.759l2.148-2.15C76.377,71.958,77,70.451,77,68.85v-31.7  c0-1.602-0.623-3.107-1.755-4.241L73.096,30.759z M27,20.73c0-2.615,2.127-4.742,4.741-4.742h16.523  c2.611,0,4.735,2.125,4.735,4.736V29H27V20.73z M73,68.85c0,0.534-0.208,1.037-0.585,1.414l-2.147,2.149  C69.889,72.792,69.386,73,68.852,73H11.148c-0.534,0-1.037-0.208-1.415-0.586l-2.148-2.149C7.208,69.886,7,69.384,7,68.85v-31.7  c0-0.526,0.213-1.042,0.585-1.414l2.147-2.149C10.111,33.208,10.614,33,11.148,33h13.446c0.131,0.027,0.267,0.042,0.406,0.042  s0.275-0.014,0.406-0.042h29.188c0.131,0.027,0.267,0.042,0.406,0.042s0.275-0.014,0.406-0.042h13.446  c0.534,0,1.037,0.208,1.415,0.586l2.148,2.149C72.787,36.108,73,36.624,73,37.15V68.85z"></path></svg>