<?xml version="1.0" encoding="utf-8"?>
<!-- Generator: Adobe Illustrator 21.0.0, SVG Export Plug-In . SVG Version: 6.00 Build 0)  -->
<svg version="1.1" id="图层_1" xmlns="http://www.w3.org/2000/svg" xmlns:xlink="http://www.w3.org/1999/xlink" x="0px" y="0px"
	 viewBox="0 0 100 100" style="enable-background:new 0 0 100 100;" xml:space="preserve">
<style type="text/css">
	.st0{opacity:0.5;fill:#FFFFFF;}
</style>
<path class="st0" d="M98.3,12.8L75.2,30.7L62.3,18.1L75.1,2.6c0.5-0.7,0.5-1.6-0.2-2.2c-0.6-0.5-1.6-0.5-2.2,0.2L58,18.3l2,1.9
	c-0.1,0-0.1,0.1-0.2,0.1c-5.3,4.5-12.9,5.3-17.5,5.3c-0.5,0-0.9,0-1.3,0h-0.1c-1.5,0-3,1-3.4,2.5L26.7,64.4
	C11.9,71.7,11.3,74.7,11,75.9c-0.2,0.9,0,1.8,0.6,2.5c2.5,2.9,7,2,10,1.4l0.8-0.2c0.5-0.1,1.2-0.3,2.2-0.5c9.5-2.4,14.9-3,16.3-1.7
	c0.1,0.1,0.2,0.2,0.2,0.6c-0.2,1.2-1.3,2.2-2.7,3.3c-1,0.9-2,1.7-2.7,2.8c-1.6,2.4-1.8,4.5-0.8,6c2,3,8.4,3.1,21,0.5
	c0.4-0.1,0.8-0.2,0.9-0.2c14.8-2.8,24.1-2.3,27.6,1.2c1.5,1.5,1.9,3.7,1.2,6.5c-0.2,0.9,0.3,1.6,1.2,1.9c0.2,0,0.2,0.1,0.3,0.1
	c0.7,0,1.3-0.5,1.5-1.2c0.9-3.9,0.2-7-2-9.4c-6.5-6.7-24.5-3.3-30.4-2.2c-0.2,0.1-0.5,0.1-1,0.2c-14.8,3.1-17.3,1.4-17.8,0.8
	c-0.2-0.4,0-1.4,0.8-2.6c0.5-0.7,1.2-1.4,2.1-2.1c1.6-1.3,3.4-2.8,3.8-5.2c0.2-1.7-0.5-2.8-1.2-3.4c-2.8-2.5-9.7-1.4-19.1,1
	c-0.9,0.2-1.6,0.4-2,0.5c-0.2,0.1-0.5,0.1-0.8,0.2c-2.2,0.5-5.5,1.1-6.9-0.2c0.2-0.5,2-3.4,15.7-10l0.2-0.2c0.3-0.2,0.5-0.4,0.7-0.6
	l33.7-10.5c1.5-0.5,2.6-2,2.5-3.6c-0.2-10.8,3.2-16.2,5.5-18.5c0.1-0.1,0.2-0.2,0.2-0.2l2.2,2.1l25.2-19.6c0.7-0.5,0.8-1.5,0.3-2.2
	C99.9,12.4,98.9,12.3,98.3,12.8z M63.8,51.6c0,0.2-0.2,0.5-0.3,0.5L34,61.3l18.4-17.7c0.2,0.1,0.5,0.1,0.8,0.1
	c2.2,0,3.9-1.7,3.9-3.9s-1.7-3.9-3.9-3.9s-3.9,1.7-3.9,3.9c0,0.7,0.2,1.3,0.5,2L31.4,59.5L40.5,29c0.1-0.1,0.3-0.2,0.5-0.2
	c0.5,0,0.9,0,1.4,0c5.6,0,13.5-1,19.4-6L70,31C67,34.3,63.6,40.4,63.8,51.6z"/>
<path class="st0" d="M79.2,9.1c-0.6-0.6-1.6-0.6-2.2,0l-6.2,6.2c-0.6,0.6-0.6,1.6,0,2.2c0.3,0.3,0.7,0.5,1.1,0.5s0.8-0.2,1.1-0.5
	l6.2-6.2C79.8,10.6,79.8,9.7,79.2,9.1z"/>
<path class="st0" d="M75.8,22.7c0.4,0,0.8-0.2,1.1-0.5l6.2-6.2c0.6-0.6,0.6-1.6,0-2.2c-0.6-0.6-1.6-0.6-2.2,0L74.7,20
	c-0.6,0.6-0.6,1.6,0,2.2C75,22.5,75.4,22.7,75.8,22.7z"/>
</svg>
